<svg width="53" height="53" viewBox="0 0 53 53" fill="none" xmlns="http://www.w3.org/2000/svg">
<path d="M47.3036 0H5.67643C2.54257 0 0 2.54257 0 5.67643V47.3036C0 50.4374 2.54257 52.98 5.67643 52.98H47.3036C50.4374 52.98 52.98 50.4374 52.98 47.3036V5.67643C52.98 2.54257 50.4374 0 47.3036 0ZM28.8315 41.3197C28.8315 46.4758 25.8041 48.8291 21.393 48.8291C17.4077 48.8291 15.1017 46.7714 13.9191 44.2761L17.9754 41.8282C18.7559 43.2118 19.4654 44.3826 21.1802 44.3826C22.8121 44.3826 23.8528 43.744 23.8528 41.2487V24.3259H28.8315V41.3197ZM40.6101 48.8291C35.9862 48.8291 32.9942 46.6295 31.5397 43.744L35.5959 41.4025C36.6603 43.1409 38.0557 44.4299 40.5037 44.4299C42.5614 44.4299 43.8859 43.401 43.8859 41.9701C43.8859 40.2672 42.5377 39.664 40.2553 38.6588L39.0136 38.1267C35.4185 36.6011 33.0415 34.6735 33.0415 30.6172C33.0415 26.8803 35.8916 24.042 40.3263 24.042C43.4956 24.042 45.7662 25.1418 47.3982 28.0274L43.5193 30.5108C42.6678 28.9853 41.7454 28.3821 40.3145 28.3821C38.8599 28.3821 37.9375 29.3046 37.9375 30.5108C37.9375 32.0009 38.8599 32.604 41.0004 33.5382L42.2421 34.0704C46.4758 35.8798 48.8528 37.7364 48.8528 41.8991C48.8528 46.3693 45.3286 48.8291 40.6101 48.8291Z" fill="white"/>
</svg>
