<svg width="80" height="49" viewBox="0 0 80 49" fill="none" xmlns="http://www.w3.org/2000/svg">
<path d="M39.5375 49C39.275 49 39.0125 48.925 38.775 48.8L36.375 47.3749C36.0125 47.1749 36.1875 47.0999 36.3125 47.0624C36.7875 46.8999 36.8875 46.8624 37.4 46.5624C37.45 46.5374 37.525 46.5499 37.575 46.5749L39.425 47.6749C39.4875 47.7125 39.5875 47.7125 39.65 47.6749L46.875 43.4998C46.9375 43.4623 46.9875 43.3873 46.9875 43.2998V34.962C46.9875 34.8745 46.95 34.7995 46.875 34.762L39.65 30.5993C39.5875 30.5618 39.5 30.5618 39.425 30.5993L32.2 34.762C32.125 34.7995 32.0875 34.887 32.0875 34.962V43.2998C32.0875 43.3748 32.1375 43.4498 32.2 43.4873L34.175 44.6248C35.25 45.1624 35.9125 44.5248 35.9125 43.8998V35.662C35.9125 35.5495 36 35.4495 36.125 35.4495H37.0375C37.15 35.4495 37.25 35.537 37.25 35.662V43.8998C37.25 45.3374 36.475 46.1499 35.1125 46.1499C34.7 46.1499 34.3625 46.1499 33.45 45.6999L31.55 44.6123C31.0875 44.3373 30.7875 43.8373 30.7875 43.2998V34.962C30.7875 34.4245 31.075 33.9119 31.55 33.6494L38.775 29.4743C39.2375 29.2118 39.8375 29.2118 40.2875 29.4743L47.5125 33.6494C47.975 33.9244 48.275 34.4245 48.275 34.962V43.2998C48.275 43.8373 47.9875 44.3498 47.5125 44.6123L40.2875 48.7875C40.075 48.925 39.8125 49 39.5375 49ZM45.375 40.7747C45.375 39.2121 44.325 38.7996 42.1 38.4996C39.85 38.1996 39.625 38.0496 39.625 37.5246C39.625 37.0871 39.8125 36.512 41.475 36.512C42.9625 36.512 43.5125 36.8371 43.7375 37.8371C43.7625 37.9371 43.8375 37.9996 43.9375 37.9996H44.875C44.9375 37.9996 44.9875 37.9746 45.025 37.9371C45.0625 37.8871 45.0875 37.8371 45.075 37.7746C44.925 36.0495 43.7875 35.2495 41.475 35.2495C39.4125 35.2495 38.1875 36.1245 38.1875 37.5746C38.1875 39.1621 39.4125 39.5872 41.3875 39.7872C43.75 40.0247 43.9375 40.3622 43.9375 40.8247C43.9375 41.6372 43.2875 41.9747 41.7625 41.9747C39.85 41.9747 39.425 41.4997 39.2875 40.5497C39.275 40.4497 39.1875 40.3747 39.075 40.3747H38.1375C38.025 40.3747 37.925 40.4622 37.925 40.5872C37.925 41.7997 38.5875 43.2498 41.75 43.2498C44.0625 43.2498 45.375 42.3498 45.375 40.7747ZM52.1875 34.512C52.1875 35.2745 51.5625 35.8995 50.8 35.8995C50.0375 35.8995 49.4125 35.2745 49.4125 34.512C49.4125 33.7244 50.0625 33.1244 50.8 33.1244C51.55 33.1119 52.1875 33.7244 52.1875 34.512ZM51.9625 34.512C51.9625 33.8619 51.4375 33.3494 50.7875 33.3494C50.15 33.3494 49.625 33.8619 49.625 34.512C49.625 35.162 50.15 35.687 50.7875 35.687C51.4375 35.6745 51.9625 35.1495 51.9625 34.512ZM51.4 35.287H51.075C51.0625 35.212 51.0125 34.812 51.0125 34.7995C50.9875 34.712 50.9625 34.662 50.85 34.662H50.575V35.287H50.275V33.7244H50.8125C51 33.7244 51.3625 33.7244 51.3625 34.137C51.3625 34.4245 51.175 34.487 51.0625 34.5245C51.275 34.537 51.2875 34.6745 51.325 34.8745C51.3375 34.9995 51.3625 35.212 51.4 35.287ZM51.05 34.187C51.05 33.9744 50.9 33.9744 50.825 33.9744H50.575V34.412H50.8125C51.0125 34.412 51.05 34.2745 51.05 34.187ZM17.1625 16.3738C17.1625 16.0363 16.9875 15.7363 16.7 15.5738L9.0375 11.1611C8.9125 11.0861 8.7625 11.0486 8.6125 11.0361H8.5375C8.3875 11.0361 8.25 11.0861 8.1125 11.1611L0.4625 15.5738C0.175 15.7363 0 16.0488 0 16.3738L0.0125 28.2492C0.0125 28.4117 0.1 28.5617 0.2375 28.6492C0.375 28.7368 0.55 28.7368 0.7 28.6492L5.25 26.0366C5.5375 25.8616 5.7125 25.5616 5.7125 25.2366V19.6864C5.7125 19.3614 5.8875 19.0489 6.175 18.8864L8.1125 17.7738C8.2625 17.6863 8.4125 17.6488 8.575 17.6488C8.7375 17.6488 8.9 17.6863 9.0375 17.7738L10.975 18.8864C11.2625 19.0489 11.4375 19.3614 11.4375 19.6864V25.2366C11.4375 25.5616 11.6125 25.8741 11.9 26.0366L16.45 28.6492C16.5875 28.7368 16.775 28.7368 16.9125 28.6492C17.05 28.5742 17.1375 28.4117 17.1375 28.2492L17.1625 16.3738ZM59.0625 3.41081V25.4616C59.0625 25.7866 58.8875 26.0992 58.6 26.2617L50.9375 30.6868C50.65 30.8493 50.3 30.8493 50.0125 30.6868L42.35 26.2617C42.0625 26.0992 41.8875 25.7866 41.8875 25.4616V16.6113C41.8875 16.2863 42.0625 15.9738 42.35 15.8113L50.0125 11.3861C50.3 11.2236 50.65 11.2236 50.9375 11.3861L52.85 12.4861C53.0625 12.6112 53.3375 12.4486 53.3375 12.2111V0.460702C53.3375 0.110689 53.7125 -0.11432 54.025 0.0606869L58.5875 2.61078C58.875 2.76079 59.0625 3.0733 59.0625 3.41081ZM53.3125 19.5239C53.3125 19.4364 53.2625 19.3614 53.2 19.3239L50.575 17.7988C50.5 17.7613 50.4125 17.7613 50.3375 17.7988L47.7125 19.3239C47.6375 19.3614 47.6 19.4364 47.6 19.5239V22.5615C47.6 22.649 47.65 22.724 47.7125 22.7615L50.3375 24.2741C50.4125 24.3116 50.5 24.3116 50.5625 24.2741L53.1875 22.7615C53.2625 22.724 53.3 22.649 53.3 22.5615V19.5239H53.3125ZM79.5375 19.4364C79.825 19.2739 80 18.9614 80 18.6364V16.4988C80 16.1738 79.825 15.8613 79.5375 15.6988L71.925 11.2736C71.6375 11.1111 71.2875 11.1111 71 11.2736L63.3375 15.6988C63.05 15.8613 62.875 16.1738 62.875 16.4988V25.3491C62.875 25.6866 63.05 25.9866 63.3375 26.1492L70.95 30.4868C71.225 30.6493 71.575 30.6493 71.8625 30.4868L76.4625 27.9242C76.775 27.7492 76.775 27.2992 76.4625 27.1242L68.75 22.699C68.6 22.6115 68.5125 22.4615 68.5125 22.299V19.5239C68.5125 19.3614 68.6 19.2114 68.75 19.1239L71.15 17.7363C71.2875 17.6488 71.475 17.6488 71.6125 17.7363L74.0125 19.1239C74.15 19.2114 74.25 19.3614 74.25 19.5239V21.699C74.25 22.049 74.6375 22.274 74.95 22.099L79.5375 19.4364ZM69.875 19.8739C69.825 19.9114 69.7875 19.9614 69.7875 20.0239V21.724C69.7875 21.7865 69.825 21.849 69.875 21.874L71.35 22.724C71.4 22.7615 71.475 22.7615 71.525 22.724L73 21.874C73.05 21.8365 73.0875 21.7865 73.0875 21.724V20.0239C73.0875 19.9614 73.05 19.8989 73 19.8739L71.525 19.0239C71.475 18.9864 71.4 18.9864 71.35 19.0239L69.875 19.8739ZM38.1 25.3116V16.5113C38.1 16.1863 37.9 15.8738 37.6125 15.7113L29.975 11.3111C29.7125 11.1611 29.35 11.1361 29.05 11.3111L21.4125 15.7113C21.125 15.8738 20.925 16.1738 20.925 16.5113V25.3116C20.925 25.6616 21.1625 25.9616 21.425 26.1117L29.075 30.5118C29.375 30.6868 29.725 30.6743 30 30.5118L37.625 26.1117C37.85 25.9866 38.0125 25.7741 38.075 25.5241C38.0875 25.4616 38.1 25.3866 38.1 25.3116ZM28.8125 9.69854L28.7125 9.76105H28.85L28.8125 9.69854ZM38.3375 25.9741L38.2875 25.8866V25.9991L38.3375 25.9741Z" fill="white"/>
</svg>
