<svg width="73" height="64" viewBox="0 0 73 64" fill="none" xmlns="http://www.w3.org/2000/svg">
<path d="M59.6262 20.74C58.8563 20.4828 58.0863 20.24 57.3164 20.0114C57.4447 19.4829 57.5588 18.9543 57.6729 18.4258C59.4266 9.91197 58.2717 3.06948 54.3793 0.812456C50.6295 -1.34457 44.5129 0.898166 38.325 6.29788C37.7119 6.82642 37.1131 7.38353 36.5428 7.94065C36.1578 7.56924 35.7586 7.19783 35.3594 6.84071C28.8721 1.06959 22.3705 -1.35886 18.4781 0.912451C14.7426 3.08376 13.6305 9.52628 15.1988 17.583C15.3557 18.3829 15.5268 19.1686 15.7264 19.9686C14.8139 20.2257 13.9156 20.5114 13.0744 20.8114C5.46074 23.4541 0 27.6253 0 31.9394C0 36.3963 5.81719 40.8675 13.7303 43.5816C14.3719 43.7959 15.0135 44.0101 15.6693 44.1959C15.4555 45.053 15.2701 45.8958 15.099 46.7671C13.602 54.6953 14.7711 60.9807 18.5066 63.1377C22.3563 65.3661 28.8293 63.0806 35.1312 57.5523C35.6303 57.1095 36.1293 56.6523 36.6283 56.1666C37.2557 56.7809 37.9115 57.3666 38.5674 57.938C44.6697 63.1948 50.7008 65.3233 54.4221 63.1663C58.2717 60.9378 59.5264 54.181 57.901 45.9529C57.7727 45.3244 57.6301 44.6815 57.4732 44.0244C57.9295 43.8959 58.3715 43.753 58.8135 43.6102C67.0402 40.8817 73 36.4677 73 31.9394C73 27.611 67.3824 23.4112 59.6262 20.74ZM40.3354 8.61204C45.6393 3.98372 50.5867 2.16953 52.8395 3.46946C55.249 4.8551 56.1758 10.4548 54.6645 17.8115C54.5646 18.2972 54.4648 18.7686 54.3365 19.24C51.1713 18.5258 47.9633 18.0115 44.741 17.7258C42.8875 15.0688 40.8629 12.5261 38.6672 10.1405C39.2232 9.61199 39.765 9.11201 40.3354 8.61204ZM23.8391 39.3533C24.5662 40.596 25.3076 41.8388 26.0918 43.0531C23.8676 42.8102 21.6576 42.4531 19.4762 41.9817C20.1035 39.9247 20.8877 37.7962 21.8002 35.6249C22.4561 36.882 23.1262 38.1247 23.8391 39.3533ZM19.5189 22.1685C21.5721 21.7113 23.7535 21.3399 26.0205 21.0542C25.2648 22.2399 24.5234 23.4541 23.8248 24.6826C23.1262 25.8968 22.4418 27.1396 21.8002 28.3967C20.902 26.2682 20.1463 24.1826 19.5189 22.1685ZM23.4256 32.0108C24.3666 30.0395 25.3932 28.111 26.4768 26.2111C27.5604 24.3112 28.7295 22.4684 29.9557 20.6543C32.0943 20.4971 34.2758 20.4114 36.5 20.4114C38.7242 20.4114 40.9199 20.4971 43.0443 20.6543C44.2562 22.4542 45.4111 24.2969 46.509 26.1825C47.6068 28.0681 48.6334 29.9966 49.6029 31.9536C48.6477 33.925 47.6211 35.8677 46.5232 37.7819C45.4396 39.6818 44.2848 41.5246 43.0729 43.353C40.9484 43.5102 38.7385 43.5816 36.5 43.5816C34.2615 43.5816 32.0943 43.5102 29.9984 43.3816C28.758 41.5674 27.5889 39.7104 26.491 37.8105C25.3932 35.9106 24.3809 33.9821 23.4256 32.0108ZM49.1752 39.3247C49.9023 38.0676 50.5867 36.7962 51.2568 35.5106C52.1693 37.5819 52.9678 39.6818 53.6664 41.8388C51.4564 42.3388 49.218 42.7245 46.9652 42.9816C47.7352 41.7817 48.4623 40.5532 49.1752 39.3247ZM51.2283 28.3967C50.5582 27.1396 49.8738 25.8825 49.1609 24.654C48.4623 23.4398 47.7352 22.2399 46.9795 21.0542C49.275 21.3399 51.4707 21.7256 53.5238 22.197C52.868 24.3112 52.098 26.3682 51.2283 28.3967ZM36.5285 12.3261C38.0256 13.9546 39.4371 15.6688 40.7488 17.4401C37.9258 17.3116 35.0885 17.3116 32.2654 17.4401C33.6627 15.5974 35.1027 13.8832 36.5285 12.3261ZM19.9895 3.56945C22.3848 2.16953 27.7029 4.16942 33.3063 9.14058C33.6627 9.45485 34.0191 9.79769 34.3898 10.1405C32.1799 12.5261 30.141 15.0688 28.2732 17.7258C25.051 18.0115 21.8572 18.5115 18.692 19.2115C18.5066 18.4829 18.3498 17.7401 18.193 16.9973C16.8527 10.0834 17.7367 4.86938 19.9895 3.56945ZM16.4963 41.2246C15.8975 41.0532 15.3129 40.8675 14.7283 40.6675C11.6914 39.7104 8.24102 38.1962 5.7459 36.2106C4.30586 35.2106 3.33633 33.6678 3.06543 31.9394C3.06543 29.3252 7.5709 25.9825 14.0725 23.7112C14.8852 23.4255 15.7121 23.1684 16.5391 22.9256C17.5086 26.0254 18.6777 29.0681 20.0322 32.0108C18.6635 34.9963 17.4801 38.0819 16.4963 41.2246ZM33.1209 55.2238C30.7684 57.3809 28.0451 59.0951 25.0795 60.2664C23.4969 61.0235 21.6719 61.095 20.0465 60.4521C17.7795 59.1379 16.8385 54.0953 18.1217 47.31C18.2785 46.51 18.4496 45.7101 18.6492 44.9244C21.843 45.6101 25.0652 46.0815 28.3303 46.3243C30.2123 48.9956 32.2797 51.5526 34.4896 53.9525C34.0334 54.3953 33.5771 54.8239 33.1209 55.2238ZM36.6141 51.7526C35.1598 50.1812 33.7055 48.4385 32.2939 46.5672C33.6627 46.6243 35.0742 46.6529 36.5 46.6529C37.9686 46.6529 39.4086 46.6243 40.8344 46.5529C39.5227 48.3671 38.1111 50.0955 36.6141 51.7526ZM55.249 56.0381C55.1207 57.7808 54.2652 59.4093 52.8965 60.5093C50.6295 61.8235 45.7961 60.1093 40.5777 55.6238C39.9789 55.1096 39.3801 54.5524 38.767 53.981C40.9484 51.5669 42.9588 49.0099 44.7838 46.3243C48.0488 46.0529 51.2996 45.5529 54.5076 44.8244C54.6502 45.4101 54.7785 45.9958 54.8926 46.5672C55.5912 49.6527 55.7053 52.8668 55.249 56.0381ZM57.8439 40.6818C57.4447 40.8103 57.0455 40.9389 56.632 41.0532C55.634 37.939 54.4078 34.8964 52.9963 31.9394C54.365 29.0252 55.5199 26.0254 56.4895 22.9541C57.2309 23.1684 57.9438 23.397 58.6281 23.6255C65.2723 25.9111 69.9346 29.3109 69.9346 31.9108C69.9346 34.7106 64.9586 38.3247 57.8439 40.6818ZM36.5 38.539C40.1072 38.539 43.0301 35.6106 43.0301 31.9965C43.0301 28.3824 40.1072 25.454 36.5 25.454C32.8928 25.454 29.9699 28.3824 29.9699 31.9965C29.9699 35.6106 32.8928 38.539 36.5 38.539Z" fill="white"/>
</svg>
