<svg width="148" height="148" viewBox="0 0 148 148" fill="none" xmlns="http://www.w3.org/2000/svg">
<path d="M126.106 60.4237L114.648 35.5988C115.484 34.841 116.153 33.9178 116.613 32.888C117.073 31.8578 117.315 30.7436 117.322 29.6155C117.315 27.7846 116.685 26.0107 115.536 24.5854C114.387 23.1601 112.786 22.1683 110.999 21.7732C109.211 21.3781 107.342 21.6033 105.699 22.4116C104.057 23.2199 102.738 24.5632 101.96 26.2206L44.0355 40.9457C42.6067 39.7166 40.7853 39.0392 38.9008 39.0361C37.2657 39.025 35.6664 39.5141 34.3171 40.4375C32.9676 41.361 31.9328 42.6748 31.351 44.2029C30.7693 45.731 30.6686 47.4006 31.0624 48.9876C31.4561 50.5746 32.3253 52.0034 33.554 53.0823L21.7993 78.5435L55.96 78.4162L44.2476 52.9549C45.4958 51.836 46.3572 50.3504 46.709 48.7113L67.6298 43.4071V108.588H67.2052L38.9434 117.372C38.0393 117.658 37.2491 118.223 36.6851 118.985C36.1212 119.747 35.8125 120.668 35.803 121.616V121.913C35.7663 122.509 35.856 123.107 36.0666 123.667C36.2769 124.226 36.6031 124.735 37.0237 125.16C37.4446 125.584 37.9499 125.915 38.5077 126.131C39.0652 126.346 39.6618 126.442 40.2587 126.411H107.689C108.282 126.441 108.875 126.347 109.429 126.134C109.984 125.921 110.487 125.594 110.907 125.174C111.327 124.753 111.654 124.25 111.868 123.696C112.081 123.141 112.175 122.548 112.144 121.955V121.616C112.138 120.673 111.836 119.756 111.28 118.995C110.724 118.233 109.943 117.665 109.047 117.372L80.827 108.588H80.3602V40.6913L102.936 34.7078L103.785 35.5988L92.2847 60.5085C94.8242 60.5085 123.779 60.4237 126.106 60.4237ZM28.8012 78.5435L38.9008 56.6469L48.8603 78.4461L28.8012 78.5435ZM109.429 39.1635L119.274 60.3811H99.4562L109.429 39.1635Z" fill="#333333"/>
<path fill-rule="evenodd" clip-rule="evenodd" d="M38.911 94.7132C46.1013 94.7132 52.2464 90.2384 54.7134 83.9215C48.8165 83.9215 45.0515 83.9215 41.851 83.9215C36.4829 83.9219 32.7012 83.9219 23.1089 83.9215C25.5759 90.2384 31.721 94.7132 38.911 94.7132ZM16.6175 83.9215C16.0756 81.9584 15.7861 79.8904 15.7861 77.7549C18.0752 77.7549 20.1157 77.7549 21.9528 77.7549C32.4298 77.7552 36.2889 77.7552 41.8873 77.7549C45.2849 77.7549 49.3228 77.7549 55.8693 77.7549C57.7122 77.7549 59.754 77.7549 62.036 77.7549V77.7632C62.0354 79.8956 61.7459 81.9609 61.2047 83.9215C58.5062 93.6994 49.5473 100.88 38.911 100.88C28.2751 100.88 19.3161 93.6994 16.6175 83.9215Z" fill="#333333"/>
<path fill-rule="evenodd" clip-rule="evenodd" d="M107.996 77.1256C115.186 77.1256 121.331 72.6507 123.798 66.3339C117.901 66.3339 114.136 66.3339 110.935 66.3339C105.567 66.3342 101.785 66.3342 92.1932 66.3339C94.6602 72.6507 100.805 77.1256 107.996 77.1256ZM85.7019 66.3339C85.1601 64.3707 84.8706 62.3028 84.8706 60.1672C87.1597 60.1672 89.2002 60.1672 91.0373 60.1672C101.514 60.1675 105.374 60.1675 110.972 60.1672C114.369 60.1672 118.407 60.1672 124.954 60.1672C126.797 60.1672 128.838 60.1672 131.121 60.1672V60.1756C131.12 62.308 130.83 64.3732 130.289 66.3339C127.59 76.1118 118.632 83.2922 107.996 83.2922C97.3593 83.2922 88.4004 76.1118 85.7019 66.3339Z" fill="#333333"/>
</svg>
