<svg width="51" height="48" viewBox="0 0 51 48" fill="none" xmlns="http://www.w3.org/2000/svg">
<path fill-rule="evenodd" clip-rule="evenodd" d="M7.71191 18C7.71191 11.0964 13.3084 5.5 20.2119 5.5H30.2119C37.1154 5.5 42.7119 11.0964 42.7119 18V20.0955C40.0762 16.9987 35.2769 17.0167 32.6664 20.1495C32.0397 20.9018 30.8842 20.9018 30.2574 20.1495C27.6317 16.9986 22.7922 16.9986 20.1664 20.1495C19.5395 20.9018 18.3843 20.9018 17.7575 20.1495C15.1468 17.0167 10.3478 16.9987 7.71191 20.0955V18ZM47.7119 18V19.25C48.3517 19.25 48.9914 19.494 49.4797 19.9823C50.4559 20.9585 50.4559 22.5415 49.4797 23.5177L49.0234 23.974C48.0979 24.8997 46.9759 25.4975 45.7969 25.7738C48.3532 26.5578 50.2119 28.9368 50.2119 31.75C50.2119 33.9017 49.1244 35.7997 47.4692 36.924C47.6247 37.2497 47.7119 37.6147 47.7119 38V39.25C47.7119 44.0825 43.7944 48 38.9619 48H11.4619C6.62941 48 2.71191 44.0825 2.71191 39.25V38C2.71191 37.6147 2.79906 37.2497 2.95471 36.924C1.29936 35.7997 0.211914 33.9017 0.211914 31.75C0.211914 28.9368 2.07061 26.5578 4.62696 25.7738C3.44784 25.4975 2.32601 24.8997 1.40034 23.974L0.944139 23.5177C-0.0321607 22.5415 -0.0321607 20.9585 0.944139 19.9823C1.43231 19.494 2.07211 19.25 2.71191 19.25V18C2.71191 8.33503 10.5469 0.5 20.2119 0.5H30.2119C39.8769 0.5 47.7119 8.33503 47.7119 18ZM8.61106 25.5H17.2934C16.0232 25.1688 14.8345 24.4522 13.9164 23.3505C13.2895 22.5982 12.1343 22.5982 11.5075 23.3505L11.3645 23.522C10.5991 24.4405 9.64606 25.1015 8.61106 25.5ZM20.6304 25.5H29.7934C28.5232 25.1688 27.3344 24.4522 26.4164 23.3505C25.7897 22.5982 24.6342 22.5982 24.0074 23.3505C23.0894 24.4522 21.9007 25.1688 20.6304 25.5ZM33.1304 25.5H41.8127C40.7777 25.1015 39.8247 24.4405 39.0592 23.522L38.9164 23.3505C38.2897 22.5982 37.1342 22.5982 36.5074 23.3505C35.5894 24.4522 34.4007 25.1688 33.1304 25.5ZM7.71191 38V39.25C7.71191 41.321 9.39084 43 11.4619 43H38.9619C41.0329 43 42.7119 41.321 42.7119 39.25V38H7.71191ZM5.21191 31.75C5.21191 31.0597 5.77156 30.5 6.46191 30.5H43.9619C44.6522 30.5 45.2119 31.0597 45.2119 31.75C45.2119 32.4403 44.6522 33 43.9619 33H6.46191C5.77156 33 5.21191 32.4403 5.21191 31.75Z" fill="#4A3D3B"/>
</svg>
