<svg width="76" height="53" viewBox="0 0 76 53" fill="none" xmlns="http://www.w3.org/2000/svg">
<path d="M41.3903 24.164H33.5722V17.1384H41.3903V24.164ZM41.3903 0H33.5722V7.17942H41.3903V0ZM50.6396 17.1265H42.8215V24.1522H50.6396V17.1265ZM32.1529 8.59875H24.3348V15.7072H32.1529V8.59875ZM41.3903 8.59875H33.5722V15.7072H41.3903V8.59875ZM74.1295 20.4265C72.4263 19.2792 68.4995 18.8652 65.4834 19.4329C65.0931 16.5943 63.5082 14.1223 60.6222 11.8987L58.9663 10.7987L57.8663 12.4546C55.69 15.7427 55.0987 21.1598 57.4287 24.7318C56.3997 25.2877 54.3772 26.0446 51.7041 25.9973H0.289021C-0.739991 32.0058 0.975029 39.8121 5.49322 45.1701C9.8813 50.3624 16.4575 53 25.0563 53C43.6731 53 57.4524 44.4249 63.8985 28.8478C66.4296 28.8951 71.894 28.8596 74.6972 23.5017C74.8746 23.206 75.4778 21.9404 75.7025 21.4791L74.1295 20.4265ZM13.678 17.1265H5.8717V24.1522H13.6898V17.1265H13.678ZM22.9154 17.1265H15.0973V24.1522H22.9154V17.1265ZM32.1529 17.1265H24.3348V24.1522H32.1529V17.1265ZM22.9154 8.59875H15.0973V15.7072H22.9154V8.59875Z" fill="white"/>
</svg>
