<svg width="45" height="67" viewBox="0 0 45 67" fill="none" xmlns="http://www.w3.org/2000/svg">
<path d="M33.7516 22.3377C36.7349 22.3377 39.596 21.161 41.7054 19.0664C43.8149 16.9719 45 14.131 45 11.1688C45 8.20669 43.8149 5.36584 41.7054 3.27128C39.596 1.17671 36.7349 0 33.7516 0L11.2549 0C8.27344 0 5.41406 1.17603 3.30582 3.26936C1.19758 5.3627 0.0131821 8.20188 0.0131821 11.1623C0.0131821 14.1227 1.19758 16.9619 3.30582 19.0552C5.41406 21.1486 8.27344 22.3246 11.2549 22.3246C8.2717 22.3246 5.41063 23.5013 3.30116 25.5959C1.19168 27.6905 0.0065927 30.5313 0.0065927 33.4935C0.0065927 36.4556 1.19168 39.2965 3.30116 41.391C5.41063 43.4856 8.2717 44.6623 11.2549 44.6623C9.03023 44.661 6.85509 45.3148 5.00459 46.541C3.15408 47.7671 1.71132 49.5106 0.858758 51.551C0.00619322 53.5913 -0.217886 55.8369 0.214855 58.0037C0.647597 60.1705 1.71772 62.1612 3.28991 63.7241C4.8621 65.287 6.86574 66.3519 9.04745 66.7841C11.2292 67.2163 13.491 66.9965 15.5468 66.1523C17.6027 65.3082 19.3603 63.8777 20.5974 62.0417C21.8344 60.2057 22.4954 58.0467 22.4967 55.8377V22.3377H33.7516ZM33.7516 22.3377C31.5282 22.3377 29.3548 22.9924 27.5061 24.2189C25.6574 25.4454 24.2165 27.1887 23.3656 29.2284C22.5147 31.268 22.2921 33.5124 22.7259 35.6777C23.1597 37.8429 24.2303 39.8319 25.8025 41.3929C27.3747 42.954 29.3778 44.0171 31.5585 44.4478C33.7392 44.8785 35.9995 44.6575 38.0537 43.8126C40.1078 42.9678 41.8636 41.5371 43.0988 39.7014C44.3341 37.8658 44.9934 35.7077 44.9934 33.5C44.9931 30.5397 43.8086 27.7007 41.7004 25.6074C39.5922 23.5142 36.733 22.338 33.7516 22.3377Z" fill="white"/>
</svg>
