<svg width="46" height="46" viewBox="0 0 46 46" fill="none" xmlns="http://www.w3.org/2000/svg">
<g clip-path="url(#clip0_111_226)">
<path d="M26.6188 -3.63434e-05C26.4855 -0.00293839 26.3416 0.0298852 26.159 0.0913712L5.92871 5.99754C5.76038 6.03666 5.77015 6.08177 5.91032 6.18954L23.8685 20.4434C24.1991 20.7159 24.3547 20.7497 24.8156 20.6079L44.9528 13.6688C45.4148 13.5 45.4469 13.4589 44.9712 13.1476L27.2974 0.293552C27.0245 0.102367 26.839 0.0052463 26.6169 0.00100581L26.6188 -3.63434e-05ZM24.3108 1.72794C24.7137 1.72504 25.1389 1.769 25.5797 1.86507C27.3431 2.24947 28.5936 3.32085 28.3659 4.25126C28.1382 5.18165 26.5247 5.6231 24.7613 5.23864C22.998 4.85423 21.7474 3.79199 21.9751 2.86159C22.1459 2.16377 23.1022 1.73384 24.3107 1.72791L24.3108 1.72794ZM12.9086 5.17475C13.3115 5.17185 13.7459 5.21579 14.1867 5.31189C15.9501 5.69629 17.1914 6.75854 16.9637 7.68895C16.736 8.61937 15.1225 9.06992 13.3591 8.68549C11.5958 8.30109 10.3544 7.22971 10.5821 6.2993C10.7529 5.60148 11.7 5.18069 12.9085 5.17476L12.9086 5.17475ZM30.1861 6.05242C30.589 6.04951 31.0235 6.10262 31.4642 6.19871C33.2276 6.58308 34.469 7.64536 34.2412 8.57576C34.0135 9.50617 32.4 9.94761 30.6367 9.56315C28.8733 9.17876 27.6319 8.1165 27.8596 7.18609C28.0305 6.48831 28.9775 6.05835 30.1861 6.05242ZM4.6605 7.15867C4.62357 7.16803 4.61164 7.22539 4.58693 7.34154L0.026061 30.0238C-0.027075 30.2598 -0.0177468 30.3182 0.200773 30.5084L17.5248 45.3564C17.9278 45.7393 18.0124 45.7344 18.0674 45.265L23.1156 22.2625C23.2214 21.9491 23.1125 21.7767 22.9317 21.6316L4.84398 7.27021C4.75088 7.19212 4.697 7.15119 4.66007 7.16049L4.6605 7.15867ZM18.7299 9.746C19.1327 9.7431 19.5672 9.78705 20.008 9.88316C21.7713 10.2676 23.0127 11.3298 22.785 12.2602C22.5572 13.1906 20.9437 13.6321 19.1804 13.2476C17.417 12.8632 16.1757 11.801 16.4034 10.8706C16.5742 10.1727 17.5213 9.75195 18.7297 9.74601L18.7299 9.746ZM36.1923 10.5048C36.5952 10.5019 37.0296 10.5459 37.4704 10.642C39.2338 11.0264 40.4752 12.0886 40.2474 13.019C40.0197 13.9494 38.4062 14.4 36.6428 14.0156C34.8795 13.6312 33.6381 12.5598 33.8658 11.6294C34.0366 10.9316 34.9837 10.5108 36.1923 10.5048ZM5.78272 11.3368C5.85068 11.3301 5.92507 11.3331 5.99421 11.3368C6.82402 11.3805 7.72259 12.1537 8.24709 13.3939C8.94639 15.0474 8.71325 16.9032 7.73215 17.5354C6.75106 18.1676 5.3878 17.3422 4.68855 15.6886C3.98926 14.0351 4.22237 12.1793 5.20349 11.5471C5.38744 11.4285 5.5789 11.3569 5.78272 11.3368ZM24.7348 14.3173C25.1376 14.3144 25.5721 14.3583 26.0129 14.4544C27.7762 14.8388 29.0176 15.9011 28.7899 16.8315C28.5621 17.7619 26.9487 18.2033 25.1853 17.8189C23.4219 17.4345 22.1806 16.3722 22.4083 15.4418C22.5791 14.744 23.5262 14.3232 24.7347 14.3173L24.7348 14.3173ZM45.8935 14.9481C45.8549 14.956 45.8005 14.9695 45.7372 14.9938L25.0565 22.1264C24.6353 22.2988 24.648 22.3692 24.5784 22.6841L19.5393 45.614C19.5222 45.9516 19.3971 46.1052 19.7968 45.9249L40.1743 38.3548C40.5696 38.1667 40.6454 38.1337 40.6892 37.7514L45.9765 15.1417C46.0203 14.9824 46.0097 14.9256 45.8937 14.9497L45.8935 14.9481ZM42.5373 18.6691C43.1196 18.6785 43.5765 18.9601 43.7787 19.5011C44.1829 20.5831 43.4045 22.3148 42.0316 23.3683C40.6587 24.4219 39.2174 24.3955 38.8132 23.3135C38.4089 22.2315 39.1874 20.4997 40.5603 19.4461C41.2468 18.9193 41.9551 18.6598 42.5373 18.6691ZM17.4709 20.653C18.3111 20.6744 19.2278 21.4597 19.7605 22.7192C20.4598 24.3728 20.2358 26.2286 19.2547 26.8608C18.2737 27.493 16.9104 26.6584 16.2111 25.0048C15.5119 23.3513 15.745 21.5046 16.7261 20.8724C16.91 20.7539 17.1015 20.6822 17.3054 20.6621C17.3606 20.6565 17.4149 20.6516 17.4709 20.653ZM10.0871 23.3044C10.9273 23.3258 11.844 24.1111 12.3767 25.3706C13.076 27.0241 12.852 28.88 11.8709 29.5122C10.8899 30.1444 9.5266 29.3098 8.82734 27.6562C8.12805 26.0027 8.36119 24.156 9.34228 23.5238C9.52623 23.4052 9.71772 23.3335 9.92158 23.3135C9.9768 23.3078 10.0311 23.3029 10.0871 23.3044ZM2.8136 25.9282C2.88153 25.9215 2.95593 25.9248 3.02508 25.9282C3.85488 25.9719 4.74427 26.7543 5.26878 27.9945C5.96807 29.648 5.74414 31.4947 4.76304 32.1269C3.78194 32.7591 2.4187 31.9337 1.71944 30.2801C1.02015 28.6265 1.25328 26.7707 2.23438 26.1385C2.41834 26.02 2.60978 25.9483 2.8136 25.9282ZM34.777 28.1224C35.3467 28.1409 35.801 28.4219 35.9999 28.9544C36.4042 30.0364 35.6165 31.7682 34.2436 32.8216C32.8708 33.8752 31.4295 33.8488 31.0253 32.7668C30.621 31.6848 31.4087 29.9531 32.7816 28.8996C33.3822 28.4386 33.9946 28.1819 34.5287 28.1316C34.6145 28.1234 34.6956 28.1198 34.777 28.1224ZM14.1151 35.464C14.1831 35.4573 14.2575 35.4606 14.3266 35.464C15.1564 35.5077 16.055 36.2809 16.5795 37.5211C17.2788 39.1746 17.0457 41.0304 16.0646 41.6626C15.0835 42.2948 13.7294 41.4694 13.0301 39.8158C12.3309 38.1623 12.5548 36.3064 13.5359 35.6743C13.7198 35.5557 13.9113 35.484 14.1151 35.464ZM26.3541 37.841C26.9364 37.8504 27.3933 38.1229 27.5955 38.6639C27.9997 39.7458 27.2212 41.4776 25.8483 42.5311C24.4755 43.5846 23.0342 43.5674 22.63 42.4854C22.2257 41.4034 23.0042 39.6716 24.3771 38.618C25.0635 38.0913 25.7718 37.8317 26.3541 37.841Z" fill="white"/>
</g>
<defs>
<clipPath id="clip0_111_226">
<rect width="46" height="46" fill="white"/>
</clipPath>
</defs>
</svg>
